<svg width="128" height="128" viewBox="0 0 128 128" fill="none" xmlns="http://www.w3.org/2000/svg">
<rect width="128" height="128" rx="10" fill="#FCFDFF"/>
<circle cx="64" cy="64" r="48" fill="#00B294" fill-opacity="0.05"/>
<path d="M39.0625 63.8438C39.0625 60.6771 39.5938 57.6562 40.6562 54.7812C41.7188 51.9062 43.2604 49.3854 45.2812 47.2188C47.3021 45.0312 49.7604 43.2917 52.6562 42C55.5729 40.7083 58.8646 40.0625 62.5312 40.0625C65.4688 40.0625 68.1667 40.4792 70.625 41.3125C73.0833 42.125 75.2083 43.25 77 44.6875C78.7917 46.125 80.2188 47.7917 81.2812 49.6875C82.3438 51.5833 82.9896 53.5938 83.2188 55.7188H72.125C71.9583 54.8646 71.625 54.0417 71.125 53.25C70.6458 52.4375 69.9896 51.7188 69.1562 51.0938C68.3229 50.4688 67.3542 49.9688 66.25 49.5938C65.1458 49.1979 63.8854 49 62.4688 49C60.4271 49 58.6042 49.4062 57 50.2188C55.3958 51.0312 54.0521 52.125 52.9688 53.5C51.8854 54.8542 51.0625 56.4271 50.5 58.2188C49.9583 60.0104 49.6875 61.8646 49.6875 63.7812C49.6875 65.7396 49.9688 67.5938 50.5312 69.3438C51.1146 71.0938 51.9688 72.6458 53.0938 74C54.2188 75.3542 55.625 76.4271 57.3125 77.2188C59 77.9896 60.9583 78.375 63.1875 78.375C64.8542 78.375 66.3125 78.1562 67.5625 77.7188C68.8125 77.2604 69.8854 76.6667 70.7812 75.9375C71.6771 75.1875 72.3958 74.3125 72.9375 73.3125C73.4792 72.2917 73.8542 71.2083 74.0625 70.0625H66.125V62.3125H89.3438V70.0625H84.75C84.2708 72.6667 83.4375 75.0312 82.25 77.1562C81.0625 79.2604 79.5208 81.0521 77.625 82.5312C75.75 83.9896 73.5625 85.125 71.0625 85.9375C68.5833 86.75 65.8438 87.1562 62.8438 87.1562C59.0104 87.1562 55.6042 86.5208 52.625 85.25C49.6667 83.9583 47.1771 82.25 45.1562 80.125C43.1354 77.9792 41.6146 75.5 40.5938 72.6875C39.5729 69.875 39.0625 66.9271 39.0625 63.8438Z" fill="#00B294"/>
</svg>
